<svg width="15" height="17" viewBox="0 0 15 17" fill="none" xmlns="http://www.w3.org/2000/svg">
<path d="M8.14062 13.2727V12.5057C8.14062 11.9233 8.26373 11.3883 8.50994 10.9006C8.76089 10.4081 9.12311 10.0152 9.59659 9.72159C10.0748 9.4233 10.6572 9.27415 11.3438 9.27415C12.0398 9.27415 12.6245 9.42093 13.098 9.71449C13.5762 10.008 13.9361 10.401 14.1776 10.8935C14.4238 11.3812 14.5469 11.9186 14.5469 12.5057V13.2727C14.5469 13.8551 14.4238 14.3925 14.1776 14.8849C13.9313 15.3726 13.5691 15.7633 13.0909 16.0568C12.6127 16.3551 12.0303 16.5043 11.3438 16.5043C10.6477 16.5043 10.063 16.3551 9.58949 16.0568C9.116 15.7633 8.75616 15.3726 8.50994 14.8849C8.26373 14.3925 8.14062 13.8551 8.14062 13.2727ZM10.2074 12.5057V13.2727C10.2074 13.6089 10.2879 13.9261 10.4489 14.2244C10.6146 14.5227 10.9129 14.6719 11.3438 14.6719C11.7746 14.6719 12.0682 14.5251 12.2244 14.2315C12.3854 13.938 12.4659 13.6184 12.4659 13.2727V12.5057C12.4659 12.16 12.3902 11.8381 12.2386 11.5398C12.0871 11.2415 11.7888 11.0923 11.3438 11.0923C10.9176 11.0923 10.6217 11.2415 10.456 11.5398C10.2902 11.8381 10.2074 12.16 10.2074 12.5057ZM0.676136 4.94886V4.18182C0.676136 3.5947 0.80161 3.05729 1.05256 2.5696C1.3035 2.07718 1.66572 1.68419 2.1392 1.39062C2.61742 1.09706 3.19508 0.950284 3.87216 0.950284C4.57292 0.950284 5.16004 1.09706 5.63352 1.39062C6.10701 1.68419 6.46686 2.07718 6.71307 2.5696C6.95928 3.05729 7.08239 3.5947 7.08239 4.18182V4.94886C7.08239 5.53598 6.95691 6.07339 6.70597 6.56108C6.45975 7.04877 6.09754 7.43939 5.61932 7.73295C5.14583 8.02178 4.56345 8.16619 3.87216 8.16619C3.18087 8.16619 2.59612 8.01941 2.1179 7.72585C1.64441 7.42756 1.28456 7.03693 1.03835 6.55398C0.796875 6.06629 0.676136 5.53125 0.676136 4.94886ZM2.7571 4.18182V4.94886C2.7571 5.29451 2.83759 5.61411 2.99858 5.90767C3.1643 6.20123 3.45549 6.34801 3.87216 6.34801C4.30777 6.34801 4.60369 6.20123 4.75994 5.90767C4.92093 5.61411 5.00142 5.29451 5.00142 4.94886V4.18182C5.00142 3.83617 4.92566 3.5142 4.77415 3.21591C4.62263 2.91761 4.32197 2.76847 3.87216 2.76847C3.45076 2.76847 3.15956 2.91998 2.99858 3.22301C2.83759 3.52604 2.7571 3.84564 2.7571 4.18182ZM1.61364 16L11.6136 1.45455H13.4744L3.47443 16H1.61364Z" fill="url(#paint0_linear_187_78)"/>
<defs>
<linearGradient id="paint0_linear_187_78" x1="-1" y1="-3" x2="17" y2="16" gradientUnits="userSpaceOnUse">
<stop stop-color="#3E6B89"/>
<stop offset="1" stop-color="#53B18C"/>
</linearGradient>
</defs>
</svg>
