<svg width="40" height="40" viewBox="0 0 40 40" fill="none" xmlns="http://www.w3.org/2000/svg">
<path d="M7.42655 15.2335C8.06835 13.2872 9.11023 11.457 10.5772 9.89454C15.7866 4.31449 24.23 4.31449 29.4395 9.89454L30.8648 11.4302H26.6722C25.1969 11.4302 24.005 12.7069 24.005 14.2871C24.005 15.8674 25.1969 17.1441 26.6722 17.1441H37.2994H37.3328C38.8081 17.1441 40 15.8674 40 14.2871V2.85922C40 1.27895 38.8081 0.00223215 37.3328 0.00223215C35.8575 0.00223215 34.6656 1.27895 34.6656 2.85922V7.43039L33.2069 5.85905C25.9137 -1.95302 14.0946 -1.95302 6.80142 5.85905C4.76766 8.0375 3.30069 10.5999 2.4005 13.3408C1.90873 14.8318 2.64222 16.4567 4.02584 16.9834C5.40946 17.5102 6.93478 16.7245 7.42655 15.2425V15.2335ZM1.91707 22.9742C1.50031 23.1081 1.10023 23.3491 0.775161 23.7063C0.441759 24.0634 0.216712 24.4919 0.100021 24.9562C0.0750157 25.0633 0.0500104 25.1794 0.0333402 25.2955C0.00833504 25.4472 0 25.599 0 25.7508V37.143C0 38.7233 1.19191 40 2.66722 40C4.14253 40 5.33444 38.7233 5.33444 37.143V32.5808L6.80142 34.1432C14.0946 41.9463 25.9137 41.9463 33.1986 34.1432C35.2323 31.9647 36.7076 29.4024 37.6078 26.6704C38.0996 25.1794 37.3661 23.5545 35.9825 23.0277C34.5989 22.501 33.0736 23.2866 32.5818 24.7687C31.94 26.715 30.8981 28.5453 29.4311 30.1077C24.2217 35.6877 15.7783 35.6877 10.5689 30.1077L10.5605 30.0988L9.13524 28.5721H13.3361C14.8114 28.5721 16.0033 27.2954 16.0033 25.7151C16.0033 24.1348 14.8114 22.8581 13.3361 22.8581H2.70056C2.5672 22.8581 2.43384 22.867 2.30048 22.8849C2.16712 22.9027 2.04209 22.9295 1.91707 22.9742Z" fill="#FCFCFC"/>
</svg>
