<svg width="12" height="6" viewBox="0 0 12 6" fill="none" xmlns="http://www.w3.org/2000/svg">
<path d="M0.526989 5.07244C0.49858 4.17756 0.607481 3.41998 0.853693 2.79972C1.09991 2.17945 1.45739 1.70833 1.92614 1.38636C2.39962 1.06439 2.95597 0.903409 3.59517 0.903409C4.04025 0.903409 4.46638 0.995738 4.87358 1.1804C5.28078 1.36506 5.74242 1.68466 6.25852 2.1392C6.53314 2.38068 6.76515 2.56534 6.95455 2.69318C7.14394 2.81629 7.36174 2.87784 7.60795 2.87784C7.94413 2.87784 8.22112 2.74763 8.43892 2.48722C8.65672 2.22206 8.75852 1.80303 8.74432 1.23011H11.0597C11.0928 2.12973 10.9839 2.88968 10.733 3.50994C10.482 4.13021 10.1198 4.60133 9.64631 4.9233C9.17282 5.24527 8.62121 5.40625 7.99148 5.40625C7.52273 5.40625 7.08239 5.30919 6.67045 5.11506C6.26326 4.91619 5.81108 4.59896 5.31392 4.16335C5.02036 3.90294 4.78599 3.71591 4.6108 3.60227C4.43561 3.4839 4.22727 3.42472 3.9858 3.42472C3.64962 3.42472 3.37263 3.55256 3.15483 3.80824C2.93703 4.05919 2.83523 4.48059 2.84943 5.07244H0.526989Z" fill="url(#paint0_linear_231_2)"/>
<defs>
<linearGradient id="paint0_linear_231_2" x1="-1" y1="-10" x2="16.6812" y2="4.51608" gradientUnits="userSpaceOnUse">
<stop stop-color="#3E6B89"/>
<stop offset="1" stop-color="#53B18C"/>
</linearGradient>
</defs>
</svg>
