<svg width="50" height="50" viewBox="0 0 50 50" fill="none" xmlns="http://www.w3.org/2000/svg">
<circle cx="25" cy="25" r="25" fill="white"/>
<path d="M24.5 24.2361C26.3944 24.2361 28.2112 23.4862 29.5508 22.1513C30.8903 20.8164 31.6429 19.0059 31.6429 17.1181C31.6429 15.2302 30.8903 13.4197 29.5508 12.0848C28.2112 10.7499 26.3944 10 24.5 10C22.6056 10 20.7888 10.7499 19.4492 12.0848C18.1097 13.4197 17.3571 15.2302 17.3571 17.1181C17.3571 19.0059 18.1097 20.8164 19.4492 22.1513C20.7888 23.4862 22.6056 24.2361 24.5 24.2361ZM21.9498 26.9054C16.4531 26.9054 12 31.343 12 36.8206C12 37.7326 12.7422 38.4722 13.6574 38.4722H35.3426C36.2578 38.4722 37 37.7326 37 36.8206C37 31.343 32.5469 26.9054 27.0502 26.9054H21.9498Z" fill="#3E6B89"/>
</svg>
