<svg width="50" height="50" viewBox="0 0 50 50" fill="none" xmlns="http://www.w3.org/2000/svg">
<path d="M5.55556 7.8125C4.79167 7.8125 4.16667 8.51562 4.16667 9.375V40.625C4.16667 41.4844 4.79167 42.1875 5.55556 42.1875H44.4444C45.2083 42.1875 45.8333 41.4844 45.8333 40.625V9.375C45.8333 8.51562 45.2083 7.8125 44.4444 7.8125H5.55556ZM0 9.375C0 5.92773 2.49132 3.125 5.55556 3.125H44.4444C47.5087 3.125 50 5.92773 50 9.375V40.625C50 44.0723 47.5087 46.875 44.4444 46.875H5.55556C2.49132 46.875 0 44.0723 0 40.625V9.375ZM8.33333 15.625C8.33333 14.7962 8.62599 14.0013 9.14692 13.4153C9.66786 12.8292 10.3744 12.5 11.1111 12.5C11.8478 12.5 12.5544 12.8292 13.0753 13.4153C13.5962 14.0013 13.8889 14.7962 13.8889 15.625C13.8889 16.4538 13.5962 17.2487 13.0753 17.8347C12.5544 18.4208 11.8478 18.75 11.1111 18.75C10.3744 18.75 9.66786 18.4208 9.14692 17.8347C8.62599 17.2487 8.33333 16.4538 8.33333 15.625ZM17.3611 15.625C17.3611 14.3262 18.2899 13.2812 19.4444 13.2812H38.8889C40.0434 13.2812 40.9722 14.3262 40.9722 15.625C40.9722 16.9238 40.0434 17.9688 38.8889 17.9688H19.4444C18.2899 17.9688 17.3611 16.9238 17.3611 15.625ZM17.3611 25C17.3611 23.7012 18.2899 22.6562 19.4444 22.6562H38.8889C40.0434 22.6562 40.9722 23.7012 40.9722 25C40.9722 26.2988 40.0434 27.3438 38.8889 27.3438H19.4444C18.2899 27.3438 17.3611 26.2988 17.3611 25ZM17.3611 34.375C17.3611 33.0762 18.2899 32.0312 19.4444 32.0312H38.8889C40.0434 32.0312 40.9722 33.0762 40.9722 34.375C40.9722 35.6738 40.0434 36.7188 38.8889 36.7188H19.4444C18.2899 36.7188 17.3611 35.6738 17.3611 34.375ZM11.1111 28.125C10.3744 28.125 9.66786 27.7958 9.14692 27.2097C8.62599 26.6237 8.33333 25.8288 8.33333 25C8.33333 24.1712 8.62599 23.3763 9.14692 22.7903C9.66786 22.2042 10.3744 21.875 11.1111 21.875C11.8478 21.875 12.5544 22.2042 13.0753 22.7903C13.5962 23.3763 13.8889 24.1712 13.8889 25C13.8889 25.8288 13.5962 26.6237 13.0753 27.2097C12.5544 27.7958 11.8478 28.125 11.1111 28.125ZM8.33333 34.375C8.33333 33.5462 8.62599 32.7513 9.14692 32.1653C9.66786 31.5792 10.3744 31.25 11.1111 31.25C11.8478 31.25 12.5544 31.5792 13.0753 32.1653C13.5962 32.7513 13.8889 33.5462 13.8889 34.375C13.8889 35.2038 13.5962 35.9987 13.0753 36.5847C12.5544 37.1708 11.8478 37.5 11.1111 37.5C10.3744 37.5 9.66786 37.1708 9.14692 36.5847C8.62599 35.9987 8.33333 35.2038 8.33333 34.375Z" fill="#FCFCFC"/>
</svg>
