<svg width="57" height="57" viewBox="0 0 57 57" fill="none" xmlns="http://www.w3.org/2000/svg">
<rect x="9.5" y="9.5" width="45" height="45" stroke="#FCFCFC" stroke-width="5" stroke-dasharray="10 10"/>
<g clip-path="url(#clip0_157_4)">
<path d="M32.5 16.25C32.5 19.8359 31.3359 23.1484 29.375 25.8359L39.2656 35.7344C40.2422 36.7109 40.2422 38.2969 39.2656 39.2734C38.2891 40.25 36.7031 40.25 35.7266 39.2734L25.8359 29.375C23.1484 31.3438 19.8359 32.5 16.25 32.5C7.27344 32.5 0 25.2266 0 16.25C0 7.27344 7.27344 0 16.25 0C25.2266 0 32.5 7.27344 32.5 16.25ZM14.375 23.125C14.375 24.1641 15.2109 25 16.25 25C17.2891 25 18.125 24.1641 18.125 23.125V18.125H23.125C24.1641 18.125 25 17.2891 25 16.25C25 15.2109 24.1641 14.375 23.125 14.375H18.125V9.375C18.125 8.33594 17.2891 7.5 16.25 7.5C15.2109 7.5 14.375 8.33594 14.375 9.375V14.375H9.375C8.33594 14.375 7.5 15.2109 7.5 16.25C7.5 17.2891 8.33594 18.125 9.375 18.125H14.375V23.125Z" fill="#FCFCFC"/>
</g>
<defs>
<clipPath id="clip0_157_4">
<rect width="40" height="40" fill="white"/>
</clipPath>
</defs>
</svg>
