<svg width="40" height="41" viewBox="0 0 40 41" fill="none" xmlns="http://www.w3.org/2000/svg">
<path d="M32.5 16.7476C32.5 20.333 31.3359 23.645 29.375 26.3322L39.2656 36.2291C40.2422 37.2056 40.2422 38.7913 39.2656 39.7677C38.2891 40.7441 36.7031 40.7441 35.7266 39.7677L25.8359 29.8707C23.1484 31.8392 19.8359 32.9952 16.25 32.9952C7.27344 32.9952 0 25.7229 0 16.7476C0 7.77237 7.27344 0.5 16.25 0.5C25.2266 0.5 32.5 7.77237 32.5 16.7476ZM10.625 14.8729C9.58594 14.8729 8.75 15.7087 8.75 16.7476C8.75 17.7865 9.58594 18.6223 10.625 18.6223H21.875C22.9141 18.6223 23.75 17.7865 23.75 16.7476C23.75 15.7087 22.9141 14.8729 21.875 14.8729H10.625Z" fill="#FCFCFC"/>
</svg>
